# File created by Blade
# Date/Time:  Thu Jan 22 16:21:39 2015
# Frame Rate: 120.000 fps
#------------------------------------------------------
:FULLY-SPECIFIED
:DEGREES
2512
root 16.335171 37.134745 2.993318 -7.108787 -8.720390 2.024801
RightUpLeg 6.372504 -1.339941 -15.472562
RightLeg 2.602885 -0.000000 -0.000000
RightFoot -2.296455 -18.103588 16.125476
RightToeBase -1.529528 -0.000000 0.000000
LeftUpLeg 6.746749 -1.656598 3.809046
LeftLeg 5.220312 -0.000000 -0.000000
LeftFoot -11.395769 12.326372 -19.772506
LeftToeBase 4.474468 -0.000000 -0.000000
Spine 17.497074 1.682954 -9.081208
RightShoulder 0.663777 -25.548174 -10.840316
RightArm 29.105532 -30.747159 62.313653
RightForeArm -2.169708 0.000000 53.308585
RightHand 3.022308 -0.000000 0.924049
RightHandThumb1 -24.326973 -0.000000 -32.862282
LeftShoulder -20.554775 34.116403 3.543405
LeftArm 71.827649 29.336312 -36.513496
LeftForeArm 31.339204 0.000000 43.768437
LeftHand -15.005944 0.000000 -7.356900
LeftHandThumb1 -26.253704 0.000000 33.147579
Head -14.257108 13.842803 4.651028
2513
root 16.191968 37.107797 2.998314 -7.175365 -8.615493 2.204375
RightUpLeg 6.722923 -1.430077 -15.470396
RightLeg 2.141565 -0.000000 -0.000000
RightFoot -2.970672 -18.293218 17.007359
RightToeBase 1.006239 -0.000000 -0.000000
LeftUpLeg 6.819893 -1.718523 3.845983
LeftLeg 5.192834 -0.000000 -0.000000
LeftFoot -11.365510 12.283351 -19.960374
LeftToeBase 4.574728 -0.000000 -0.000000
Spine 17.495881 1.600068 -9.125480
RightShoulder 0.637804 -25.488497 -10.890260
RightArm 28.907843 -30.703136 62.369072
RightForeArm -1.884480 -0.000000 52.805816
RightHand 2.854491 -0.000000 0.679844
RightHandThumb1 -24.326973 -0.000000 -32.862282
LeftShoulder -20.610771 34.170328 3.493569
LeftArm 71.353957 29.223938 -36.669550
LeftForeArm 31.469969 -0.000000 43.291664
LeftHand -14.992044 0.000000 -7.370692
LeftHandThumb1 -26.253704 0.000000 33.147579
Head -14.301865 13.772367 4.545966
2514
root 16.055463 37.077365 2.994584 -7.208150 -8.566056 2.431418
RightUpLeg 6.951863 -1.657305 -15.542156
RightLeg 1.748858 -0.000000 -0.000000
RightFoot -3.448112 -18.366498 17.856844
RightToeBase 2.271496 -0.000000 -0.000000
LeftUpLeg 6.887322 -1.942789 3.806913
LeftLeg 5.088829 -0.000000 -0.000000
LeftFoot -11.304472 12.459438 -20.028295
LeftToeBase 4.461277 -0.000000 -0.000000
Spine 17.456885 1.552236 -9.200735
RightShoulder 0.615024 -25.551175 -10.962592
RightArm 28.871942 -30.615379 62.306532
RightForeArm -1.533715 -0.000000 52.290465
RightHand 2.846460 0.000000 0.387293
RightHandThumb1 -24.326973 -0.000000 -32.862282
LeftShoulder -20.662072 34.238474 3.445480
LeftArm 70.807480 29.063455 -37.013586
LeftForeArm 31.597525 0.000000 42.706024
LeftHand -14.928726 -0.000000 -7.217591
LeftHandThumb1 -26.253704 0.000000 33.147579
Head -14.350580 13.718446 4.432026
2515
root 15.889072 37.049305 3.004404 -7.294142 -8.542218 2.571403
RightUpLeg 7.300839 -1.962620 -15.472058
RightLeg 1.304114 -0.000000 -0.000000
RightFoot -3.925538 -18.494063 17.856939
RightToeBase 2.306519 -0.000000 -0.000000
LeftUpLeg 6.875321 -1.563483 3.956148
LeftLeg 5.319981 -0.000000 -0.000000
LeftFoot -11.233077 12.251310 -19.869501
LeftToeBase 4.500626 -0.000000 -0.000000
Spine 17.451324 1.554063 -9.229701
RightShoulder 0.589529 -25.544194 -10.974229
RightArm 28.674653 -30.476788 62.374143
RightForeArm -1.377038 -0.000000 51.804021
RightHand 2.896624 -0.000000 0.446161
RightHandThumb1 -24.326973 -0.000000 -32.862282
LeftShoulder -20.735169 34.344643 3.403593
LeftArm 70.252630 28.845046 -37.361081
LeftForeArm 31.658514 -0.000000 42.090467
LeftHand -14.682901 0.000000 -7.481766
LeftHandThumb1 -26.253704 0.000000 33.147579
Head -14.349586 13.686879 4.385925
